<?xml version="1.0" encoding="utf-8"?>
<!-- Generator: Adobe Illustrator 26.0.3, SVG Export Plug-In . SVG Version: 6.00 Build 0)  -->
<svg version="1.0" id="katman_1" xmlns="http://www.w3.org/2000/svg" xmlns:xlink="http://www.w3.org/1999/xlink" x="0px" y="0px"
	 viewBox="0 0 41.3 30.1" style="enable-background:new 0 0 41.3 30.1;" xml:space="preserve">
<style type="text/css">
	.st0{fill:url(#SVGID_1_);}
	.st1{fill:url(#SVGID_00000057113762586604731020000007236828308779167888_);}
	.st2{fill:url(#SVGID_00000100364668234154829990000017094088512250102697_);}
	.st3{fill:url(#SVGID_00000052822396617142408100000006509109591662118590_);}
</style>
<linearGradient id="SVGID_1_" gradientUnits="userSpaceOnUse" x1="11.4681" y1="6.0642" x2="28.949" y2="27.0412" gradientTransform="matrix(1 0 0 -1 0 32.1481)">
	<stop  offset="0" style="stop-color:#AF893D"/>
	<stop  offset="0.2344" style="stop-color:#D29D40"/>
	<stop  offset="0.5312" style="stop-color:#FFCC74"/>
	<stop  offset="0.8229" style="stop-color:#E8B55D"/>
</linearGradient>
<path class="st0" d="M20,5.6h-6l1.6,2.2v14.6l-1.9,2.2h13.6l2.2-3.2H20V5.6z"/>
<linearGradient id="SVGID_00000069400306403687556850000002648244234747159183_" gradientUnits="userSpaceOnUse" x1="8.0255" y1="8.933" x2="25.5064" y2="29.91" gradientTransform="matrix(1 0 0 -1 0 32.1481)">
	<stop  offset="0" style="stop-color:#AF893D"/>
	<stop  offset="0.2344" style="stop-color:#D29D40"/>
	<stop  offset="0.5312" style="stop-color:#FFCC74"/>
	<stop  offset="0.8229" style="stop-color:#E8B55D"/>
</linearGradient>
<path style="fill:url(#SVGID_00000069400306403687556850000002648244234747159183_);" d="M14.3,9.5c-1.6,1.6-2.5,3.8-2.5,6.2
	c0,2.4,1,4.6,2.5,6.2l0,0v-2c-0.8-1.2-1.3-2.6-1.3-4.2s0.5-3,1.3-4.2V9.5z"/>
<linearGradient id="SVGID_00000134930080156228406290000014524206288219057026_" gradientUnits="userSpaceOnUse" x1="13.1478" y1="4.6645" x2="30.6287" y2="25.6415" gradientTransform="matrix(1 0 0 -1 0 32.1481)">
	<stop  offset="0" style="stop-color:#AF893D"/>
	<stop  offset="0.2344" style="stop-color:#D29D40"/>
	<stop  offset="0.5312" style="stop-color:#FFCC74"/>
	<stop  offset="0.8229" style="stop-color:#E8B55D"/>
</linearGradient>
<path style="fill:url(#SVGID_00000134930080156228406290000014524206288219057026_);" d="M26.8,20.1c0.9-1.2,1.4-2.8,1.4-4.4
	c0-4-3.1-7.3-7-7.6V6.9c4.6,0.3,8.2,4.2,8.2,8.8c0,1.6-0.4,3.1-1.2,4.4H26.8z"/>
<radialGradient id="SVGID_00000153670241443828000640000015444555367710363789_" cx="-275.7206" cy="214.226" r="1" gradientTransform="matrix(8.865 -9.8149 -9.8149 -8.865 4564.3315 -786.9097)" gradientUnits="userSpaceOnUse">
	<stop  offset="0.1192" style="stop-color:#117D8D"/>
	<stop  offset="0.6425" style="stop-color:#2FEBEB"/>
	<stop  offset="0.8663" style="stop-color:#117D8D"/>
</radialGradient>
<path style="fill:url(#SVGID_00000153670241443828000640000015444555367710363789_);" d="M25.2,20.1c1.1-1.1,1.8-2.7,1.8-4.4
	c0-3.3-2.5-6-5.7-6.3v10.7H25.2z"/>
</svg>
